# xmcd
#
# Track frame offsets:
#	150
#	17317
#	47864
#	71579
#	84966
#	93996
#	108688
#	122083
#
# Disc length: 1914 seconds
#
# Revision: 0
# Processed by: cddbd v1.5.2PL0 Copyright (c) Steve Scherf et al.
# Submitted via: dBpowerAMP V4.0
#
DISCID=5e077808
DTITLE=Eric Quincey Tate - Drinking Man' Friend
DYEAR=1972
DGENRE=Southern Rock
TTITLE0=Brown Sugar
TTITLE1=Things (I Think I'll Find)
TTITLE2=Whiskey Woman Blues
TTITLE3=Another Sunshine Song
TTITLE4=Water To Wine
TTITLE5=Can't Get Home For Your Party
TTITLE6=Texas Sand
TTITLE7=Suzie B. Dunn
EXTD=
EXTT0=
EXTT1=
EXTT2=
EXTT3=
EXTT4=
EXTT5=
EXTT6=
EXTT7=
PLAYORDER=
